# xmcd
#
# Track frame offsets:
#	150
#	12941
#	31442
#	48677
#	68424
#	82071
#	106440
#
# Disc length: 1607 seconds
#
# Revision: 0
# Processed by: cddbd v1.5.1PL2 Copyright (c) Steve Scherf et al.
# Submitted via: EasyCDDAExtractor 9.0.0.1
#
DISCID=56064507
DTITLE=Slacks - Terrestial
DYEAR=2005
DGENRE=Alt-Country
TTITLE0=Shoot 'em Up
TTITLE1=Marrs
TTITLE2=On The Kennebec
TTITLE3=The Horse
TTITLE4=14 Miles To Crossfork
TTITLE5=The Man Who Couldn't Rage
TTITLE6=Oh! Be Joyful
EXTD=
EXTT0=
EXTT1=
EXTT2=
EXTT3=
EXTT4=
EXTT5=
EXTT6=
PLAYORDER=
